<?xml version="1.0" encoding="utf-8"?>
<!-- Generator: Adobe Illustrator 17.0.0, SVG Export Plug-In . SVG Version: 6.00 Build 0)  -->
<!DOCTYPE svg PUBLIC "-//W3C//DTD SVG 1.1//EN" "http://www.w3.org/Graphics/SVG/1.1/DTD/svg11.dtd">
<svg version="1.1" id="Capa_1" xmlns="http://www.w3.org/2000/svg" xmlns:xlink="http://www.w3.org/1999/xlink" x="0px" y="0px"
	 width="100px" height="100px" viewBox="0 0 100 100" enable-background="new 0 0 100 100" xml:space="preserve">
<g>
	<g>
		<g>
			<g>
				<path fill="#9E9E9E" d="M78.056,43.891c0.575,1.255,0.018,2.752-1.237,3.327L31.705,67.879
					c-1.255,0.575-2.752,0.018-3.327-1.237L16.898,41.576c-0.575-1.255-0.018-2.752,1.237-3.327l45.113-20.661
					c1.255-0.575,2.752-0.018,3.327,1.237L78.056,43.891z"/>
			</g>
			<g>
				<path fill="#CFD1D2" d="M76.478,43.256c0.575,1.255,0.019,2.752-1.236,3.327L30.127,67.244
					c-1.255,0.575-2.752,0.018-3.327-1.237L15.321,40.94c-0.575-1.255-0.018-2.752,1.237-3.327L61.67,16.953
					c1.255-0.575,2.752-0.018,3.327,1.237L76.478,43.256z"/>
			</g>
		</g>
		
			<rect x="15.946" y="32.765" transform="matrix(0.9092 -0.4164 0.4164 0.9092 -11.206 21.3159)" fill="#434244" width="54.639" height="7.166"/>
		
			<rect x="30.931" y="44.281" transform="matrix(0.9092 -0.4164 0.4164 0.9092 -14.9738 24.1466)" fill="#FFFFFF" width="33.876" height="4.24"/>
	</g>
	<g>
		<g>
			<g>
				<path fill="#2F5496" d="M86.793,78.902c0.046,1.437-1.092,2.65-2.529,2.697L32.61,83.254c-1.437,0.046-2.65-1.092-2.696-2.529
					l-0.92-28.699c-0.046-1.437,1.092-2.65,2.529-2.696l51.653-1.655c1.437-0.046,2.65,1.092,2.697,2.529L86.793,78.902z"/>
			</g>
			<g>
				<path fill="#4275BB" d="M85.533,77.656c0.046,1.437-1.092,2.65-2.529,2.697L31.35,82.009c-1.437,0.046-2.65-1.092-2.696-2.529
					l-0.92-28.7c-0.046-1.437,1.092-2.65,2.529-2.697l51.654-1.656c1.437-0.046,2.65,1.092,2.696,2.529L85.533,77.656z"/>
			</g>
		</g>
		<g>
			
				<rect x="31.821" y="68.325" transform="matrix(0.9995 -0.0321 0.0321 0.9995 -2.1853 1.8554)" fill="#FFFFFF" width="49.924" height="1.538"/>
			
				<rect x="32.001" y="74.104" transform="matrix(0.9995 -0.0321 0.0321 0.9995 -2.3769 1.5137)" fill="#FFFFFF" width="28.021" height="1.537"/>
			
				<rect x="75.257" y="71.856" transform="matrix(0.9995 -0.0319 0.0319 0.9995 -2.3212 2.5459)" fill="#FFFFFF" width="6.655" height="4.248"/>
			<g>
				<path fill="#FFFFFF" d="M58.495,53.34l2.567-0.082c1.29-0.041,1.78,0.711,1.808,1.606c0.017,0.573-0.208,1.226-0.811,1.356
					c0.525,0.077,0.972,0.581,0.997,1.371c0.037,1.159-0.461,1.846-1.769,1.889l-2.593,0.083L58.495,53.34z M61.071,55.725
					c0.427-0.012,0.642-0.28,0.628-0.726c-0.019-0.576-0.374-0.698-0.674-0.688l-1.306,0.041l0.045,1.416L61.071,55.725z
					 M61.202,58.43c0.361-0.011,0.682-0.191,0.662-0.852c-0.015-0.456-0.208-0.866-0.716-0.85l-1.35,0.044l0.055,1.702L61.202,58.43
					z"/>
				<path fill="#FFFFFF" d="M65.258,53.124l1.354-0.043l2.217,6.158l-1.266,0.041l-0.485-1.365l-2.04,0.064l-0.402,1.395
					l-1.279,0.041L65.258,53.124z M66.764,56.869l-0.773-2.2l-0.677,2.247L66.764,56.869z"/>
				<path fill="#FFFFFF" d="M69.271,52.996l1.21-0.04l2.594,3.942l-0.128-4.02l1.193-0.038l0.2,6.222l-1.193,0.038l-2.603-3.893
					l0.128,3.974l-1.2,0.039L69.271,52.996z"/>
				<path fill="#FFFFFF" d="M75.048,52.809l1.142-0.035l0.084,2.601l0.5-0.016l1.493-2.652l1.389-0.044l-1.805,3.176l2.005,3.046
					l-1.389,0.043l-1.657-2.52l-0.495,0.016l0.082,2.571l-1.148,0.037L75.048,52.809z"/>
			</g>
			<g>
				<path fill="#FFFFFF" d="M42.625,58.752c0.031,0.959-0.728,1.766-1.688,1.797l-7.651,0.246c-0.958,0.03-1.767-0.727-1.798-1.687
					l-0.122-3.813c-0.031-0.959,0.728-1.767,1.687-1.798l7.652-0.246c0.96-0.031,1.769,0.727,1.8,1.686L42.625,58.752z"/>
				<g>
					<defs>
						<path id="SVGID_1_" d="M42.625,58.752c0.031,0.959-0.728,1.766-1.688,1.797l-7.651,0.246c-0.958,0.03-1.767-0.727-1.798-1.687
							l-0.122-3.813c-0.031-0.959,0.728-1.767,1.687-1.798l7.652-0.246c0.96-0.031,1.769,0.727,1.8,1.686L42.625,58.752z"/>
					</defs>
					<clipPath id="SVGID_2_">
						<use xlink:href="#SVGID_1_"  overflow="visible"/>
					</clipPath>
					<g clip-path="url(#SVGID_2_)">
						<g>
							<path fill="#4275BB" d="M42.532,55.82l-4.918,0.158c-0.083,0.003-0.155-0.063-0.158-0.147
								c-0.004-0.086,0.063-0.156,0.147-0.158l4.919-0.159c0.083-0.002,0.155,0.063,0.158,0.15
								C42.683,55.749,42.615,55.819,42.532,55.82z"/>
						</g>
						<g>
							<path fill="#4275BB" d="M42.602,58.015l-4.917,0.158c-0.084,0.002-0.156-0.062-0.158-0.148
								c-0.003-0.084,0.063-0.154,0.147-0.158l4.918-0.157c0.083-0.003,0.154,0.063,0.157,0.149
								C42.752,57.944,42.686,58.012,42.602,58.015z"/>
						</g>
						<g>
							<path fill="#4275BB" d="M37.712,59.044l-6.164,0.198c-0.085,0.002-0.157-0.063-0.16-0.148
								c-0.003-0.085,0.066-0.156,0.149-0.158l6.165-0.198c0.084-0.003,0.155,0.063,0.159,0.148
								C37.863,58.971,37.795,59.041,37.712,59.044z"/>
						</g>
						<g>
							<path fill="#4275BB" d="M37.774,61.017c-0.083,0.003-0.154-0.062-0.159-0.148l-0.24-7.51
								c-0.003-0.086,0.065-0.155,0.148-0.158c0.085-0.002,0.155,0.063,0.158,0.147l0.241,7.51
								C37.927,60.945,37.859,61.015,37.774,61.017z"/>
						</g>
					</g>
				</g>
			</g>
		</g>
	</g>
</g>
</svg>
